<?xml version="1.0" encoding="UTF-8"?>
<svg width="230px" height="58px" viewBox="0 0 230 58" version="1.1" xmlns="http://www.w3.org/2000/svg" xmlns:xlink="http://www.w3.org/1999/xlink">
    <title>LOGO</title>
    <g id="Symbols" stroke="none" stroke-width="1" fill="none" fill-rule="evenodd">
        <g id="HERO" transform="translate(-33.000000, -83.000000)" fill="#FFFFFF" fill-rule="nonzero">
            <path d="M147.24,106.88 C149.16,106.88 151,107.07 152.76,107.45 C154.52,107.83 156.08,108.44 157.44,109.28 C158.8,110.12 159.9,111.18 160.74,112.46 C161.58,113.74 162.04,115.28 162.12,117.08 L162.12,117.08 L151.26,118.82 L151.358437,118.48625 C151.572812,117.69875 151.68,116.85 151.68,115.94 C151.68,114.54 151.3,113.51 150.54,112.85 C149.78,112.19 148.88,111.86 147.84,111.86 C146.96,111.86 146.15,112.09 145.41,112.55 C144.67,113.01 144.3,113.7 144.3,114.62 C144.3,115.58 144.96,116.62 146.28,117.74 C147.12,118.46 148.14,119.17 149.34,119.87 C150.54,120.57 151.78,121.27 153.06,121.97 C154.34,122.67 155.62,123.4 156.9,124.16 C158.18,124.92 159.32,125.71 160.32,126.53 C161.32,127.35 162.13,128.21 162.75,129.11 C163.37,130.01 163.68,130.98 163.68,132.02 C163.68,133.18 163.38,134.19 162.78,135.05 C162.18,135.91 161.4,136.65 160.44,137.27 C159.48,137.89 158.38,138.4 157.14,138.8 C155.9,139.2 154.66,139.52 153.42,139.76 C152.18,140 150.98,140.16 149.82,140.24 C148.66,140.32 147.66,140.36 146.82,140.36 C143.74,140.36 140.8,140.05 138,139.43 C135.2,138.81 132.74,138 130.62,137 L130.62,137 L132.9,129.68 L133.107407,129.905926 C133.680247,130.50642 134.411111,131.091111 135.3,131.66 C136.3,132.3 137.39,132.87 138.57,133.37 C139.75,133.87 140.95,134.27 142.17,134.57 C143.39,134.87 144.52,135.02 145.56,135.02 C146.8,135.02 147.82,134.82 148.62,134.42 C149.42,134.02 149.82,133.36 149.82,132.44 C149.82,131.72 149.35,130.98 148.41,130.22 C147.47,129.46 146.28,128.68 144.84,127.88 C143.4,127.08 141.86,126.24 140.22,125.36 C138.58,124.48 137.04,123.56 135.6,122.6 C134.16,121.64 132.97,120.62 132.03,119.54 C131.09,118.46 130.62,117.3 130.62,116.06 C130.62,114.54 131.1,113.2 132.06,112.04 C133.02,110.88 134.28,109.92 135.84,109.16 C137.4,108.4 139.18,107.83 141.18,107.45 C143.18,107.07 145.2,106.88 147.24,106.88 Z M52.26,107.18 L52.08,107.902963 C51.6177778,109.838765 51.2977778,111.837778 51.12,113.9 C50.92,116.22 50.78,118.7 50.7,121.34 C51.62,120.34 52.54,119.24 53.46,118.04 C54.38,116.84 55.25,115.61 56.07,114.35 C56.89,113.09 57.64,111.84 58.32,110.6 C59,109.36 59.56,108.22 60,107.18 L60,107.18 L71.4,107.18 L70.9140741,107.573333 C69.6024691,108.64 68.1644444,109.848889 66.6,111.2 C64.84,112.72 63.12,114.32 61.44,116 C62,118.16 62.73,120.38 63.63,122.66 C64.53,124.94 65.49,127.15 66.51,129.29 C67.53,131.43 68.56,133.43 69.6,135.29 C70.64,137.15 71.58,138.72 72.42,140 L72.42,140 L57.12,140 L56.8757812,139.168438 C56.2960937,137.212813 55.6475,135.15 54.93,132.98 C54.11,130.5 53.2,127.96 52.2,125.36 C52,125.6 51.77,125.86 51.51,126.14 C51.25,126.42 51.02,126.68 50.82,126.92 C50.9,129.52 51.04,131.92 51.24,134.12 C51.44,136.32 51.78,138.28 52.26,140 L52.26,140 L34.8,140 L34.918,139.609333 C35.4593333,137.755111 35.87,135.465333 36.15,132.74 C36.45,129.82 36.6,126.78 36.6,123.62 C36.6,120.42 36.45,117.36 36.15,114.44 C35.85,111.52 35.4,109.1 34.8,107.18 L34.8,107.18 L52.26,107.18 Z M91.98,107.18 L91.862,107.570667 C91.3206667,109.424889 90.91,111.714667 90.63,114.44 C90.33,117.36 90.18,120.42 90.18,123.62 C90.18,126.78 90.33,129.82 90.63,132.74 C90.93,135.66 91.38,138.08 91.98,140 L91.98,140 L74.22,140 L74.338,139.609333 C74.8793333,137.755111 75.29,135.465333 75.57,132.74 C75.87,129.82 76.02,126.78 76.02,123.62 C76.02,120.42 75.87,117.36 75.57,114.44 C75.27,111.52 74.82,109.1 74.22,107.18 L74.22,107.18 L91.98,107.18 Z M110.4,107.18 L110.8725,108.287188 C111.9925,110.864063 113.235,113.395 114.6,115.88 C116.16,118.72 117.94,121.48 119.94,124.16 C119.94,122.88 119.92,121.51 119.88,120.05 C119.84,118.59 119.76,117.11 119.64,115.61 C119.52,114.11 119.34,112.63 119.1,111.17 C118.86,109.71 118.54,108.38 118.14,107.18 L118.14,107.18 L128.22,107.18 L128.102,107.570667 C127.560667,109.424889 127.15,111.714667 126.87,114.44 C126.57,117.36 126.42,120.42 126.42,123.62 C126.42,126.78 126.57,129.82 126.87,132.74 C127.17,135.66 127.62,138.08 128.22,140 L128.22,140 L112.8,140 L112.3275,138.892813 C111.2075,136.315938 109.965,133.785 108.6,131.3 C107.04,128.46 105.26,125.72 103.26,123.08 C103.26,124.36 103.28,125.73 103.32,127.19 C103.36,128.65 103.44,130.13 103.56,131.63 C103.68,133.13 103.86,134.6 104.1,136.04 C104.34,137.48 104.66,138.8 105.06,140 L105.06,140 L94.98,140 L95.098,139.609333 C95.6393333,137.755111 96.05,135.465333 96.33,132.74 C96.63,129.82 96.78,126.78 96.78,123.62 C96.78,120.42 96.63,117.36 96.33,114.44 C96.03,111.52 95.58,109.1 94.98,107.18 L94.98,107.18 L110.4,107.18 Z M191.16,107.18 L191.14898,107.716939 C191.139184,108.801837 191.202857,109.952857 191.34,111.17 C191.5,112.59 191.72,114.02 192,115.46 C192.28,116.9 192.6,118.32 192.96,119.72 C193.32,121.12 193.66,122.42 193.98,123.62 C194.34,124.94 194.75,126.32 195.21,127.76 C195.67,129.2 196.17,130.63 196.71,132.05 C197.25,133.47 197.83,134.86 198.45,136.22 C199.07,137.58 199.74,138.84 200.46,140 L200.46,140 L182.7,140 L182.6975,139.551667 C182.689167,138.790556 182.66,137.96 182.61,137.06 C182.55,135.98 182.44,134.82 182.28,133.58 L182.28,133.58 L174.66,133.58 L174.5472,134.2724 C174.4064,135.1908 174.304,136.09 174.24,136.97 C174.16,138.07 174.14,139.08 174.18,140 L174.18,140 L164.1,140 L164.455833,139.411667 C165.041944,138.417222 165.593333,137.353333 166.11,136.22 C166.73,134.86 167.31,133.47 167.85,132.05 C168.39,130.63 168.89,129.2 169.35,127.76 C169.81,126.32 170.22,124.94 170.58,123.62 C170.9,122.42 171.24,121.12 171.6,119.72 C171.96,118.32 172.28,116.9 172.56,115.46 C172.84,114.02 173.06,112.59 173.22,111.17 C173.38,109.75 173.44,108.42 173.4,107.18 L173.4,107.18 L191.16,107.18 Z M219.42,107.18 L219.302,107.570667 C218.760667,109.424889 218.35,111.714667 218.07,114.44 C217.77,117.36 217.62,120.42 217.62,123.62 C217.62,125.58 217.68,127.5 217.8,129.38 C217.92,131.26 218.08,133.04 218.28,134.72 C220.32,134.52 222.43,134.17 224.61,133.67 C226.79,133.17 228.68,132.58 230.28,131.9 L230.28,131.9 L228.96,140 L201.66,140 L201.778,139.609333 C202.319333,137.755111 202.73,135.465333 203.01,132.74 C203.31,129.82 203.46,126.78 203.46,123.62 C203.46,120.42 203.31,117.36 203.01,114.44 C202.71,111.52 202.26,109.1 201.66,107.18 L201.66,107.18 L219.42,107.18 Z M261.18,107.18 L262.5,114.68 L261.847934,114.436529 C259.682645,113.649752 257.6,113.110909 255.6,112.82 C253.4,112.5 251.28,112.3 249.24,112.22 C249.04,113.58 248.89,115.01 248.79,116.51 C248.69,118.01 248.6,119.54 248.52,121.1 C249.96,120.98 251.42,120.78 252.9,120.5 C254.38,120.22 255.86,119.82 257.34,119.3 L257.34,119.3 L257.34,127.94 L256.705714,127.72449 C255.437143,127.308163 254.168571,126.98 252.9,126.74 C251.42,126.46 249.96,126.24 248.52,126.08 C248.6,127.64 248.69,129.17 248.79,130.67 C248.89,132.17 249.04,133.58 249.24,134.9 C250.32,134.82 251.47,134.69 252.69,134.51 C253.91,134.33 255.12,134.12 256.32,133.88 C257.52,133.64 258.68,133.35 259.8,133.01 C260.92,132.67 261.92,132.3 262.8,131.9 L262.8,131.9 L261.48,140 L232.56,140 L232.678,139.609333 C233.219333,137.755111 233.63,135.465333 233.91,132.74 C234.21,129.82 234.36,126.78 234.36,123.62 C234.36,120.42 234.21,117.36 233.91,114.44 C233.61,111.52 233.16,109.1 232.56,107.18 L232.56,107.18 L261.18,107.18 Z M178.8,116.84 C178.24,118.48 177.67,120.36 177.09,122.48 C176.51,124.6 176,126.74 175.56,128.9 L175.56,128.9 L181.56,128.9 C181.2,126.94 180.79,124.9 180.33,122.78 C179.87,120.66 179.36,118.68 178.8,116.84 Z M79.52,88.24 C79.9466667,88.24 80.3633333,88.3 80.77,88.42 C81.1766667,88.54 81.5533333,88.7133333 81.9,88.94 C81.86,88.6733333 81.8133333,88.4733333 81.76,88.34 L81.76,88.34 L86.18,88.34 L86.1412,88.4428 C86.0910667,88.5889333 86.0473333,88.7713333 86.01,88.99 C85.9633333,89.2633333 85.9233333,89.57 85.89,89.91 C85.8566667,90.25 85.83,90.6133333 85.81,91 C85.79,91.3866667 85.78,91.78 85.78,92.18 L85.78,92.18 L85.78,95.46 L85.7738272,95.7085185 C85.7409053,96.3583951 85.5762963,96.9055556 85.28,97.35 C84.9466667,97.85 84.5133333,98.2533333 83.98,98.56 C83.4466667,98.8666667 82.8566667,99.0833333 82.21,99.21 C81.5633333,99.3366667 80.9266667,99.4 80.3,99.4 C78.9666667,99.4 77.7933333,99.2133333 76.78,98.84 L76.78,98.84 L76.54,97.12 L76.854375,97.264375 C77.173125,97.403125 77.505,97.525 77.85,97.63 C78.31,97.77 78.8,97.84 79.32,97.84 C79.8,97.84 80.19,97.7733333 80.49,97.64 C80.79,97.5066667 81.0266667,97.3233333 81.2,97.09 C81.3733333,96.8566667 81.4933333,96.5833333 81.56,96.27 C81.6266667,95.9566667 81.66,95.6133333 81.66,95.24 C81.46,95.4666667 81.2066667,95.67 80.9,95.85 C80.5933333,96.03 80.2066667,96.12 79.74,96.12 C79.1533333,96.12 78.61,96.03 78.11,95.85 C77.61,95.67 77.1766667,95.4133333 76.81,95.08 C76.4433333,94.7466667 76.1566667,94.3366667 75.95,93.85 C75.7433333,93.3633333 75.64,92.8066667 75.64,92.18 C75.64,91.6333333 75.7333333,91.11 75.92,90.61 C76.1066667,90.11 76.3933333,89.6733333 76.78,89.3 C77.14,88.94 77.56,88.6733333 78.04,88.5 C78.52,88.3266667 79.0133333,88.24 79.52,88.24 Z M51.52,88.24 C52.4133333,88.24 53.1766667,88.3566667 53.81,88.59 C54.4433333,88.8233333 54.96,89.13 55.36,89.51 C55.76,89.89 56.0533333,90.3133333 56.24,90.78 C56.4266667,91.2466667 56.52,91.7133333 56.52,92.18 C56.52,92.6466667 56.4266667,93.1133333 56.24,93.58 C56.0533333,94.0466667 55.76,94.4666667 55.36,94.84 C54.96,95.2133333 54.4433333,95.52 53.81,95.76 C53.1766667,96 52.4133333,96.12 51.52,96.12 C50.6266667,96.12 49.8666667,96 49.24,95.76 C48.6133333,95.52 48.1,95.2133333 47.7,94.84 C47.3,94.4666667 47.0066667,94.0466667 46.82,93.58 C46.6333333,93.1133333 46.54,92.6466667 46.54,92.18 C46.54,91.7133333 46.6333333,91.2466667 46.82,90.78 C47.0066667,90.3133333 47.3,89.89 47.7,89.51 C48.1,89.13 48.6133333,88.8233333 49.24,88.59 C49.8666667,88.3566667 50.6266667,88.24 51.52,88.24 Z M109.4,88.34 L109.351224,88.5302041 C109.25898,88.9253061 109.198571,89.4085714 109.17,89.98 C109.136667,90.6466667 109.12,91.38 109.12,92.18 L109.12,92.18 L109.12,93.32 L109.126667,93.4697222 C109.148889,93.7132407 109.226667,93.9266667 109.36,94.11 C109.52,94.33 109.74,94.44 110.02,94.44 C110.313333,94.44 110.536667,94.36 110.69,94.2 C110.843333,94.04 110.953333,93.8466667 111.02,93.62 L111.02,93.62 L111.02,93.08 L111.0225,92.8525 L111.0225,92.8525 L111.03,92.61 C111.036667,92.4433333 111.04,92.3 111.04,92.18 C111.04,91.38 111.026667,90.65 111,89.99 C110.973333,89.33 110.9,88.78 110.78,88.34 L110.78,88.34 L115.56,88.34 L115.5208,88.4428 C115.4696,88.5889333 115.422667,88.7713333 115.38,88.99 C115.326667,89.2633333 115.283333,89.57 115.25,89.91 C115.216667,90.25 115.19,90.6133333 115.17,91 C115.15,91.3866667 115.14,91.78 115.14,92.18 C115.14,92.58 115.15,92.9733333 115.17,93.36 C115.19,93.7466667 115.216667,94.11 115.25,94.45 C115.283333,94.79 115.326667,95.0933333 115.38,95.36 C115.433333,95.6266667 115.493333,95.84 115.56,96 L115.56,96 L111.34,96 L111.12,94.86 L110.911667,95.0641667 C110.561667,95.3891667 110.197778,95.6377778 109.82,95.81 C109.366667,96.0166667 108.806667,96.12 108.14,96.12 C107.753333,96.12 107.373333,96.0666667 107,95.96 C106.626667,95.8533333 106.293333,95.6866667 106,95.46 C105.706667,95.2333333 105.47,94.9433333 105.29,94.59 C105.11,94.2366667 105.02,93.8133333 105.02,93.32 L105.02,93.32 L105.02,92.18 L105.016667,91.7822222 C105.012222,91.5185185 105.003333,91.2577778 104.99,91 C104.97,90.6133333 104.943333,90.25 104.91,89.91 C104.876667,89.57 104.833333,89.2633333 104.78,88.99 C104.726667,88.7166667 104.666667,88.5 104.6,88.34 L104.6,88.34 L109.4,88.34 Z M149.66,88.24 C150.473333,88.24 151.19,88.3533333 151.81,88.58 C152.43,88.8066667 152.923333,89.1266667 153.29,89.54 C153.656667,89.9533333 153.896667,90.46 154.01,91.06 C154.123333,91.66 154.086667,92.3266667 153.9,93.06 L153.9,93.06 L148.9,93.06 L148.940741,93.2322222 C149.06321,93.6766667 149.296296,94.0025926 149.64,94.21 C150.026667,94.4433333 150.473333,94.56 150.98,94.56 C151.486667,94.56 151.996667,94.48 152.51,94.32 C153.023333,94.16 153.453333,94 153.8,93.84 L153.8,93.84 L153.54,95.56 L153.143125,95.683125 C152.739375,95.799375 152.315,95.895 151.87,95.97 C151.276667,96.07 150.673333,96.12 150.06,96.12 C149.46,96.12 148.843333,96.0466667 148.21,95.9 C147.576667,95.7533333 146.996667,95.5233333 146.47,95.21 C145.943333,94.8966667 145.513333,94.49 145.18,93.99 C144.846667,93.49 144.68,92.8866667 144.68,92.18 C144.68,91.7133333 144.773333,91.2466667 144.96,90.78 C145.146667,90.3133333 145.44,89.89 145.84,89.51 C146.24,89.13 146.753333,88.8233333 147.38,88.59 C148.006667,88.3566667 148.766667,88.24 149.66,88.24 Z M71.5,88.24 C71.8866667,88.24 72.2566667,88.2933333 72.61,88.4 C72.9633333,88.5066667 73.2733333,88.6733333 73.54,88.9 C73.8066667,89.1266667 74.02,89.4166667 74.18,89.77 C74.34,90.1233333 74.42,90.54 74.42,91.02 L74.42,91.02 L74.42,92.18 L74.4233333,92.5777778 C74.4277778,92.8414815 74.4366667,93.1022222 74.45,93.36 C74.47,93.7466667 74.4966667,94.11 74.53,94.45 C74.5633333,94.79 74.6066667,95.0933333 74.66,95.36 C74.7133333,95.6266667 74.7733333,95.84 74.84,96 L74.84,96 L69.96,96 L70.008125,95.8617188 C70.1160417,95.5197396 70.1933333,95.0425 70.24,94.43 C70.2933333,93.73 70.32,92.98 70.32,92.18 L70.32,92.18 L70.32,91.02 L70.3122222,90.8702778 C70.2862963,90.6267593 70.1955556,90.4133333 70.04,90.23 C69.8533333,90.01 69.6066667,89.9 69.3,89.9 C69.0333333,89.9 68.8033333,89.98 68.61,90.14 C68.4166667,90.3 68.2866667,90.5 68.22,90.74 C68.2066667,90.9666667 68.1966667,91.2 68.19,91.44 C68.1833333,91.68 68.18,91.9266667 68.18,92.18 C68.18,92.98 68.1966667,93.7233333 68.23,94.41 C68.2633333,95.0966667 68.34,95.6266667 68.46,96 L68.46,96 L63.66,96 L63.6992,95.8976 C63.7504,95.7525333 63.7973333,95.5733333 63.84,95.36 C63.8933333,95.0933333 63.9366667,94.79 63.97,94.45 C64.0033333,94.11 64.03,93.7466667 64.05,93.36 C64.07,92.9733333 64.08,92.58 64.08,92.18 C64.08,91.78 64.07,91.3866667 64.05,91 C64.03,90.6133333 64.0033333,90.25 63.97,89.91 C63.9366667,89.57 63.8933333,89.2633333 63.84,88.99 C63.7866667,88.7166667 63.7266667,88.5 63.66,88.34 L63.66,88.34 L68.7,88.34 L68.6344444,88.47 C68.5914815,88.5633333 68.55,88.67 68.51,88.79 C68.45,88.97 68.3933333,89.1733333 68.34,89.4 C68.7666667,89.04 69.26,88.7566667 69.82,88.55 C70.38,88.3433333 70.94,88.24 71.5,88.24 Z M121.26,88.22 C121.82,88.22 122.326667,88.2533333 122.78,88.32 C123.233333,88.3866667 123.666667,88.4666667 124.08,88.56 L124.08,88.56 L124.38,90.52 L124.1636,90.4104 C123.863867,90.2674667 123.519333,90.1373333 123.13,90.02 C122.643333,89.8733333 122.166667,89.8 121.7,89.8 C121.3,89.8 121.006667,89.8566667 120.82,89.97 C120.633333,90.0833333 120.54,90.22 120.54,90.38 C120.54,90.62 120.84,90.8466667 121.44,91.06 C121.746667,91.1666667 122.126667,91.3033333 122.58,91.47 C123.033333,91.6366667 123.473333,91.8333333 123.9,92.06 C124.326667,92.2866667 124.693333,92.5466667 125,92.84 C125.306667,93.1333333 125.46,93.46 125.46,93.82 C125.46,94.14 125.37,94.4166667 125.19,94.65 C125.01,94.8833333 124.773333,95.08 124.48,95.24 C124.186667,95.4 123.856667,95.53 123.49,95.63 C123.123333,95.73 122.756667,95.8066667 122.39,95.86 C122.023333,95.9133333 121.676667,95.95 121.35,95.97 C121.023333,95.99 120.746667,96 120.52,96 C119.76,96 119.033333,95.9466667 118.34,95.84 C117.646667,95.7333333 117.086667,95.6066667 116.66,95.46 L116.66,95.46 L117.28,93.48 L117.5212,93.6216 C117.855067,93.8072 118.238,93.98 118.67,94.14 C119.21,94.34 119.76,94.44 120.32,94.44 C120.626667,94.44 120.913333,94.3866667 121.18,94.28 C121.446667,94.1733333 121.58,93.9733333 121.58,93.68 C121.58,93.4933333 121.46,93.33 121.22,93.19 C120.98,93.05 120.676667,92.9133333 120.31,92.78 C119.943333,92.6466667 119.546667,92.5133333 119.12,92.38 C118.693333,92.2466667 118.296667,92.0933333 117.93,91.92 C117.563333,91.7466667 117.26,91.54 117.02,91.3 C116.78,91.06 116.66,90.7733333 116.66,90.44 C116.66,89.9466667 116.833333,89.5533333 117.18,89.26 C117.526667,88.9666667 117.943333,88.7433333 118.43,88.59 C118.916667,88.4366667 119.42,88.3366667 119.94,88.29 C120.46,88.2433333 120.9,88.22 121.26,88.22 Z M131.5,88.34 C131.433333,88.5 131.373333,88.7166667 131.32,88.99 C131.266667,89.2633333 131.223333,89.57 131.19,89.91 C131.156667,90.25 131.13,90.6133333 131.11,91 C131.09,91.3866667 131.08,91.78 131.08,92.18 C131.08,92.58 131.09,92.9733333 131.11,93.36 C131.13,93.7466667 131.156667,94.11 131.19,94.45 C131.223333,94.79 131.266667,95.0933333 131.32,95.36 C131.373333,95.6266667 131.433333,95.84 131.5,96 L131.5,96 L126.56,96 L126.5992,95.8976 C126.6504,95.7525333 126.697333,95.5733333 126.74,95.36 C126.793333,95.0933333 126.836667,94.79 126.87,94.45 C126.903333,94.11 126.93,93.7466667 126.95,93.36 C126.97,92.9733333 126.98,92.58 126.98,92.18 C126.98,91.78 126.97,91.3866667 126.95,91 C126.93,90.6133333 126.903333,90.25 126.87,89.91 C126.836667,89.57 126.793333,89.2633333 126.74,88.99 C126.686667,88.7166667 126.626667,88.5 126.56,88.34 C127.4,88.6466667 128.22,88.8 129.02,88.8 C129.833333,88.8 130.66,88.6466667 131.5,88.34 Z M62.46,88.34 C62.3933333,88.5 62.3333333,88.7166667 62.28,88.99 C62.2266667,89.2633333 62.1833333,89.57 62.15,89.91 C62.1166667,90.25 62.09,90.6133333 62.07,91 C62.05,91.3866667 62.04,91.78 62.04,92.18 C62.04,92.58 62.05,92.9733333 62.07,93.36 C62.09,93.7466667 62.1166667,94.11 62.15,94.45 C62.1833333,94.79 62.2266667,95.0933333 62.28,95.36 C62.3333333,95.6266667 62.3933333,95.84 62.46,96 L62.46,96 L57.52,96 L57.5592,95.8976 C57.6104,95.7525333 57.6573333,95.5733333 57.7,95.36 C57.7533333,95.0933333 57.7966667,94.79 57.83,94.45 C57.8633333,94.11 57.89,93.7466667 57.91,93.36 C57.93,92.9733333 57.94,92.58 57.94,92.18 C57.94,91.78 57.93,91.3866667 57.91,91 C57.89,90.6133333 57.8633333,90.25 57.83,89.91 C57.7966667,89.57 57.7533333,89.2633333 57.7,88.99 C57.6466667,88.7166667 57.5866667,88.5 57.52,88.34 C58.36,88.6466667 59.18,88.8 59.98,88.8 C60.7933333,88.8 61.62,88.6466667 62.46,88.34 Z M97.54,85.06 L97.8939844,85.0625391 C99.6338281,85.0879297 100.9225,85.30375 101.76,85.71 C102.653333,86.1433333 103.1,86.8 103.1,87.68 C103.1,87.9733333 103.026667,88.2466667 102.88,88.5 C102.733333,88.7533333 102.536667,88.98 102.29,89.18 C102.043333,89.38 101.756667,89.55 101.43,89.69 C101.103333,89.83 100.766667,89.94 100.42,90.02 C100.833333,90.1 101.233333,90.2166667 101.62,90.37 C102.006667,90.5233333 102.346667,90.7133333 102.64,90.94 C102.933333,91.1666667 103.166667,91.4266667 103.34,91.72 C103.513333,92.0133333 103.6,92.34 103.6,92.7 C103.6,93.22 103.46,93.6833333 103.18,94.09 C102.9,94.4966667 102.5,94.84 101.98,95.12 C101.46,95.4 100.823333,95.6166667 100.07,95.77 C99.3166667,95.9233333 98.4733333,96 97.54,96 L97.54,96 L91.18,96 L91.2526562,95.7521875 C91.4167187,95.1557292 91.5425,94.4316667 91.63,93.58 C91.73,92.6066667 91.78,91.5933333 91.78,90.54 C91.78,89.4733333 91.73,88.4533333 91.63,87.48 C91.53,86.5066667 91.38,85.7 91.18,85.06 L91.18,85.06 L97.54,85.06 Z M140.54,88.24 C140.926667,88.24 141.296667,88.2933333 141.65,88.4 C142.003333,88.5066667 142.313333,88.6733333 142.58,88.9 C142.846667,89.1266667 143.06,89.4166667 143.22,89.77 C143.38,90.1233333 143.46,90.54 143.46,91.02 L143.46,91.02 L143.46,92.18 L143.463333,92.5777778 C143.467778,92.8414815 143.476667,93.1022222 143.49,93.36 C143.51,93.7466667 143.536667,94.11 143.57,94.45 C143.603333,94.79 143.646667,95.0933333 143.7,95.36 C143.753333,95.6266667 143.813333,95.84 143.88,96 L143.88,96 L139,96 L139.048125,95.8617188 C139.156042,95.5197396 139.233333,95.0425 139.28,94.43 C139.333333,93.73 139.36,92.98 139.36,92.18 L139.36,92.18 L139.36,91.02 L139.352222,90.8702778 C139.326296,90.6267593 139.235556,90.4133333 139.08,90.23 C138.893333,90.01 138.646667,89.9 138.34,89.9 C138.073333,89.9 137.843333,89.98 137.65,90.14 C137.456667,90.3 137.326667,90.5 137.26,90.74 C137.246667,90.9666667 137.236667,91.2 137.23,91.44 C137.223333,91.68 137.22,91.9266667 137.22,92.18 C137.22,92.98 137.236667,93.7233333 137.27,94.41 C137.303333,95.0966667 137.38,95.6266667 137.5,96 L137.5,96 L132.7,96 L132.7392,95.8976 C132.7904,95.7525333 132.837333,95.5733333 132.88,95.36 C132.933333,95.0933333 132.976667,94.79 133.01,94.45 C133.043333,94.11 133.07,93.7466667 133.09,93.36 C133.11,92.9733333 133.12,92.58 133.12,92.18 C133.12,91.78 133.11,91.3866667 133.09,91 C133.07,90.6133333 133.043333,90.25 133.01,89.91 C132.976667,89.57 132.933333,89.2633333 132.88,88.99 C132.826667,88.7166667 132.766667,88.5 132.7,88.34 L132.7,88.34 L137.74,88.34 L137.674444,88.47 C137.631481,88.5633333 137.59,88.67 137.55,88.79 C137.49,88.97 137.433333,89.1733333 137.38,89.4 C137.806667,89.04 138.3,88.7566667 138.86,88.55 C139.42,88.3433333 139.98,88.24 140.54,88.24 Z M192.86,88.24 C193.246667,88.24 193.616667,88.2933333 193.97,88.4 C194.323333,88.5066667 194.633333,88.6733333 194.9,88.9 C195.166667,89.1266667 195.38,89.4166667 195.54,89.77 C195.7,90.1233333 195.78,90.54 195.78,91.02 L195.78,91.02 L195.78,92.18 L195.783333,92.5777778 C195.787778,92.8414815 195.796667,93.1022222 195.81,93.36 C195.83,93.7466667 195.856667,94.11 195.89,94.45 C195.923333,94.79 195.966667,95.0933333 196.02,95.36 C196.073333,95.6266667 196.133333,95.84 196.2,96 L196.2,96 L191.32,96 L191.368125,95.8617188 C191.476042,95.5197396 191.553333,95.0425 191.6,94.43 C191.653333,93.73 191.68,92.98 191.68,92.18 L191.68,92.18 L191.68,91.02 L191.672222,90.8702778 C191.646296,90.6267593 191.555556,90.4133333 191.4,90.23 C191.213333,90.01 190.966667,89.9 190.66,89.9 C190.393333,89.9 190.163333,89.98 189.97,90.14 C189.776667,90.3 189.646667,90.5 189.58,90.74 C189.566667,90.9666667 189.556667,91.2 189.55,91.44 C189.543333,91.68 189.54,91.9266667 189.54,92.18 C189.54,92.98 189.556667,93.7233333 189.59,94.41 C189.623333,95.0966667 189.7,95.6266667 189.82,96 L189.82,96 L185.02,96 L185.0592,95.8976 C185.1104,95.7525333 185.157333,95.5733333 185.2,95.36 C185.253333,95.0933333 185.296667,94.79 185.33,94.45 C185.363333,94.11 185.39,93.7466667 185.41,93.36 C185.43,92.9733333 185.44,92.58 185.44,92.18 C185.44,91.78 185.43,91.3866667 185.41,91 C185.39,90.6133333 185.363333,90.25 185.33,89.91 C185.296667,89.57 185.253333,89.2633333 185.2,88.99 C185.146667,88.7166667 185.086667,88.5 185.02,88.34 L185.02,88.34 L190.06,88.34 L189.994444,88.47 C189.951481,88.5633333 189.91,88.67 189.87,88.79 C189.81,88.97 189.753333,89.1733333 189.7,89.4 C190.126667,89.04 190.62,88.7566667 191.18,88.55 C191.74,88.3433333 192.3,88.24 192.86,88.24 Z M39.3,85.06 L39.6734,85.0645 C40.7738,85.0915 41.696,85.24 42.44,85.51 C43.2666667,85.81 43.9266667,86.21 44.42,86.71 C44.9133333,87.21 45.2566667,87.79 45.45,88.45 C45.6433333,89.11 45.74,89.8066667 45.74,90.54 C45.74,91.26 45.6433333,91.95 45.45,92.61 C45.2566667,93.27 44.9133333,93.85 44.42,94.35 C43.9266667,94.85 43.2666667,95.25 42.44,95.55 C41.6133333,95.85 40.5666667,96 39.3,96 L39.3,96 L33.6,96 L33.6726562,95.7521875 C33.8367187,95.1557292 33.9625,94.4316667 34.05,93.58 C34.15,92.6066667 34.2,91.5933333 34.2,90.54 C34.2,89.4733333 34.15,88.4533333 34.05,87.48 C33.95,86.5066667 33.8,85.7 33.6,85.06 L33.6,85.06 L39.3,85.06 Z M183.82,88.34 C183.753333,88.5 183.693333,88.7166667 183.64,88.99 C183.586667,89.2633333 183.543333,89.57 183.51,89.91 C183.476667,90.25 183.45,90.6133333 183.43,91 C183.41,91.3866667 183.4,91.78 183.4,92.18 C183.4,92.58 183.41,92.9733333 183.43,93.36 C183.45,93.7466667 183.476667,94.11 183.51,94.45 C183.543333,94.79 183.586667,95.0933333 183.64,95.36 C183.693333,95.6266667 183.753333,95.84 183.82,96 L183.82,96 L178.88,96 L178.9192,95.8976 C178.9704,95.7525333 179.017333,95.5733333 179.06,95.36 C179.113333,95.0933333 179.156667,94.79 179.19,94.45 C179.223333,94.11 179.25,93.7466667 179.27,93.36 C179.29,92.9733333 179.3,92.58 179.3,92.18 C179.3,91.78 179.29,91.3866667 179.27,91 C179.25,90.6133333 179.223333,90.25 179.19,89.91 C179.156667,89.57 179.113333,89.2633333 179.06,88.99 C179.006667,88.7166667 178.946667,88.5 178.88,88.34 C179.72,88.6466667 180.54,88.8 181.34,88.8 C182.153333,88.8 182.98,88.6466667 183.82,88.34 Z M159.78,88.22 C160.34,88.22 160.846667,88.2533333 161.3,88.32 C161.753333,88.3866667 162.186667,88.4666667 162.6,88.56 L162.6,88.56 L162.9,90.52 L162.6836,90.4104 C162.383867,90.2674667 162.039333,90.1373333 161.65,90.02 C161.163333,89.8733333 160.686667,89.8 160.22,89.8 C159.82,89.8 159.526667,89.8566667 159.34,89.97 C159.153333,90.0833333 159.06,90.22 159.06,90.38 C159.06,90.62 159.36,90.8466667 159.96,91.06 C160.266667,91.1666667 160.646667,91.3033333 161.1,91.47 C161.553333,91.6366667 161.993333,91.8333333 162.42,92.06 C162.846667,92.2866667 163.213333,92.5466667 163.52,92.84 C163.826667,93.1333333 163.98,93.46 163.98,93.82 C163.98,94.14 163.89,94.4166667 163.71,94.65 C163.53,94.8833333 163.293333,95.08 163,95.24 C162.706667,95.4 162.376667,95.53 162.01,95.63 C161.643333,95.73 161.276667,95.8066667 160.91,95.86 C160.543333,95.9133333 160.196667,95.95 159.87,95.97 C159.543333,95.99 159.266667,96 159.04,96 C158.28,96 157.553333,95.9466667 156.86,95.84 C156.166667,95.7333333 155.606667,95.6066667 155.18,95.46 L155.18,95.46 L155.8,93.48 L156.0412,93.6216 C156.375067,93.8072 156.758,93.98 157.19,94.14 C157.73,94.34 158.28,94.44 158.84,94.44 C159.146667,94.44 159.433333,94.3866667 159.7,94.28 C159.966667,94.1733333 160.1,93.9733333 160.1,93.68 C160.1,93.4933333 159.98,93.33 159.74,93.19 C159.5,93.05 159.196667,92.9133333 158.83,92.78 C158.463333,92.6466667 158.066667,92.5133333 157.64,92.38 C157.213333,92.2466667 156.816667,92.0933333 156.45,91.92 C156.083333,91.7466667 155.78,91.54 155.54,91.3 C155.3,91.06 155.18,90.7733333 155.18,90.44 C155.18,89.9466667 155.353333,89.5533333 155.7,89.26 C156.046667,88.9666667 156.463333,88.7433333 156.95,88.59 C157.436667,88.4366667 157.94,88.3366667 158.46,88.29 C158.98,88.2433333 159.42,88.22 159.78,88.22 Z M169.58,88.22 C170.14,88.22 170.646667,88.2533333 171.1,88.32 C171.553333,88.3866667 171.986667,88.4666667 172.4,88.56 L172.4,88.56 L172.7,90.52 L172.4836,90.4104 C172.183867,90.2674667 171.839333,90.1373333 171.45,90.02 C170.963333,89.8733333 170.486667,89.8 170.02,89.8 C169.62,89.8 169.326667,89.8566667 169.14,89.97 C168.953333,90.0833333 168.86,90.22 168.86,90.38 C168.86,90.62 169.16,90.8466667 169.76,91.06 C170.066667,91.1666667 170.446667,91.3033333 170.9,91.47 C171.353333,91.6366667 171.793333,91.8333333 172.22,92.06 C172.646667,92.2866667 173.013333,92.5466667 173.32,92.84 C173.626667,93.1333333 173.78,93.46 173.78,93.82 C173.78,94.14 173.69,94.4166667 173.51,94.65 C173.33,94.8833333 173.093333,95.08 172.8,95.24 C172.506667,95.4 172.176667,95.53 171.81,95.63 C171.443333,95.73 171.076667,95.8066667 170.71,95.86 C170.343333,95.9133333 169.996667,95.95 169.67,95.97 C169.343333,95.99 169.066667,96 168.84,96 C168.08,96 167.353333,95.9466667 166.66,95.84 C165.966667,95.7333333 165.406667,95.6066667 164.98,95.46 L164.98,95.46 L165.6,93.48 L165.8412,93.6216 C166.175067,93.8072 166.558,93.98 166.99,94.14 C167.53,94.34 168.08,94.44 168.64,94.44 C168.946667,94.44 169.233333,94.3866667 169.5,94.28 C169.766667,94.1733333 169.9,93.9733333 169.9,93.68 C169.9,93.4933333 169.78,93.33 169.54,93.19 C169.3,93.05 168.996667,92.9133333 168.63,92.78 C168.263333,92.6466667 167.866667,92.5133333 167.44,92.38 C167.013333,92.2466667 166.616667,92.0933333 166.25,91.92 C165.883333,91.7466667 165.58,91.54 165.34,91.3 C165.1,91.06 164.98,90.7733333 164.98,90.44 C164.98,89.9466667 165.153333,89.5533333 165.5,89.26 C165.846667,88.9666667 166.263333,88.7433333 166.75,88.59 C167.236667,88.4366667 167.74,88.3366667 168.26,88.29 C168.78,88.2433333 169.22,88.22 169.58,88.22 Z M80.82,89.8 C80.6066667,89.8 80.4266667,89.8666667 80.28,90 C80.1333333,90.1333333 80.0133333,90.3133333 79.92,90.54 C79.8266667,90.7666667 79.76,91.0233333 79.72,91.31 C79.68,91.5966667 79.66,91.8866667 79.66,92.18 C79.66,92.4733333 79.68,92.7633333 79.72,93.05 C79.76,93.3366667 79.8266667,93.59 79.92,93.81 C80.0133333,94.03 80.1333333,94.21 80.28,94.35 C80.4266667,94.49 80.6066667,94.56 80.82,94.56 C81.0466667,94.56 81.23,94.4733333 81.37,94.3 C81.51,94.1266667 81.6066667,93.9266667 81.66,93.7 L81.66,93.7 L81.66,92.18 L81.6625,91.78 L81.6625,91.78 L81.67,91.38 C81.6766667,91.1133333 81.6733333,90.8466667 81.66,90.58 C81.58,90.3533333 81.4666667,90.1666667 81.32,90.02 C81.1733333,89.8733333 81.0066667,89.8 80.82,89.8 Z M51.52,89.8 C51.16,89.8 50.91,90.02 50.77,90.46 C50.63,90.9 50.56,91.4733333 50.56,92.18 C50.56,92.8866667 50.63,93.46 50.77,93.9 C50.91,94.34 51.16,94.56 51.52,94.56 C51.88,94.56 52.13,94.34 52.27,93.9 C52.41,93.46 52.48,92.8866667 52.48,92.18 C52.48,91.4733333 52.41,90.9 52.27,90.46 C52.13,90.02 51.88,89.8 51.52,89.8 Z M96.44,90.7 C96.44,91.38 96.45,92.0433333 96.47,92.69 C96.49,93.3366667 96.52,93.9133333 96.56,94.42 C96.88,94.42 97.1866667,94.3833333 97.48,94.31 C97.7733333,94.2366667 98.0333333,94.1266667 98.26,93.98 C98.4866667,93.8333333 98.6666667,93.64 98.8,93.4 C98.9333333,93.16 99,92.88 99,92.56 C99,92.2133333 98.9266667,91.9233333 98.78,91.69 C98.6333333,91.4566667 98.44,91.2666667 98.2,91.12 C97.96,90.9733333 97.6866667,90.8666667 97.38,90.8 C97.0733333,90.7333333 96.76,90.7 96.44,90.7 Z M38.98,86.72 C38.9133333,87.2933333 38.8666667,87.9033333 38.84,88.55 C38.8133333,89.1966667 38.8,89.86 38.8,90.54 C38.8,91.22 38.8133333,91.8833333 38.84,92.53 C38.8666667,93.1766667 38.9133333,93.78 38.98,94.34 C39.42,94.34 39.78,94.24 40.06,94.04 C40.34,93.84 40.5566667,93.5666667 40.71,93.22 C40.8633333,92.8733333 40.97,92.47 41.03,92.01 C41.09,91.55 41.12,91.06 41.12,90.54 C41.12,90.02 41.09,89.5266667 41.03,89.06 C40.97,88.5933333 40.8633333,88.1866667 40.71,87.84 C40.5566667,87.4933333 40.34,87.22 40.06,87.02 C39.78,86.82 39.42,86.72 38.98,86.72 Z M150.32,89.8 C150.026667,89.8 149.783333,89.8766667 149.59,90.03 C149.396667,90.1833333 149.24,90.37 149.12,90.59 C149,90.81 148.916667,91.0533333 148.87,91.32 C148.823333,91.5866667 148.8,91.8266667 148.8,92.04 L148.8,92.04 L150.82,92.04 C150.886667,91.8666667 150.953333,91.6533333 151.02,91.4 C151.086667,91.1466667 151.113333,90.9 151.1,90.66 C151.086667,90.42 151.023333,90.2166667 150.91,90.05 C150.796667,89.8833333 150.6,89.8 150.32,89.8 Z M96.56,86.68 C96.5333333,87.0533333 96.51,87.4633333 96.49,87.91 C96.47,88.3566667 96.4533333,88.8266667 96.44,89.32 C96.7066667,89.32 96.9633333,89.2933333 97.21,89.24 C97.4566667,89.1866667 97.6766667,89.1066667 97.87,89 C98.0633333,88.8933333 98.2166667,88.7566667 98.33,88.59 C98.4433333,88.4233333 98.5,88.22 98.5,87.98 C98.5,87.7666667 98.4466667,87.58 98.34,87.42 C98.2333333,87.26 98.09,87.1233333 97.91,87.01 C97.73,86.8966667 97.5233333,86.8133333 97.29,86.76 C97.0566667,86.7066667 96.8133333,86.68 96.56,86.68 Z M129.02,83.56 C129.606667,83.56 130.1,83.76 130.5,84.16 C130.9,84.56 131.1,85.0533333 131.1,85.64 C131.1,85.92 131.046667,86.1866667 130.94,86.44 C130.833333,86.6933333 130.686667,86.9166667 130.5,87.11 C130.313333,87.3033333 130.093333,87.4533333 129.84,87.56 C129.586667,87.6666667 129.313333,87.72 129.02,87.72 C128.74,87.72 128.473333,87.6666667 128.22,87.56 C127.966667,87.4533333 127.746667,87.3033333 127.56,87.11 C127.373333,86.9166667 127.226667,86.6933333 127.12,86.44 C127.013333,86.1866667 126.96,85.92 126.96,85.64 C126.96,85.3466667 127.013333,85.0733333 127.12,84.82 C127.226667,84.5666667 127.373333,84.3466667 127.56,84.16 C127.746667,83.9733333 127.966667,83.8266667 128.22,83.72 C128.473333,83.6133333 128.74,83.56 129.02,83.56 Z M59.98,83.56 C60.5666667,83.56 61.06,83.76 61.46,84.16 C61.86,84.56 62.06,85.0533333 62.06,85.64 C62.06,85.92 62.0066667,86.1866667 61.9,86.44 C61.7933333,86.6933333 61.6466667,86.9166667 61.46,87.11 C61.2733333,87.3033333 61.0533333,87.4533333 60.8,87.56 C60.5466667,87.6666667 60.2733333,87.72 59.98,87.72 C59.7,87.72 59.4333333,87.6666667 59.18,87.56 C58.9266667,87.4533333 58.7066667,87.3033333 58.52,87.11 C58.3333333,86.9166667 58.1866667,86.6933333 58.08,86.44 C57.9733333,86.1866667 57.92,85.92 57.92,85.64 C57.92,85.3466667 57.9733333,85.0733333 58.08,84.82 C58.1866667,84.5666667 58.3333333,84.3466667 58.52,84.16 C58.7066667,83.9733333 58.9266667,83.8266667 59.18,83.72 C59.4333333,83.6133333 59.7,83.56 59.98,83.56 Z M181.34,83.56 C181.926667,83.56 182.42,83.76 182.82,84.16 C183.22,84.56 183.42,85.0533333 183.42,85.64 C183.42,85.92 183.366667,86.1866667 183.26,86.44 C183.153333,86.6933333 183.006667,86.9166667 182.82,87.11 C182.633333,87.3033333 182.413333,87.4533333 182.16,87.56 C181.906667,87.6666667 181.633333,87.72 181.34,87.72 C181.06,87.72 180.793333,87.6666667 180.54,87.56 C180.286667,87.4533333 180.066667,87.3033333 179.88,87.11 C179.693333,86.9166667 179.546667,86.6933333 179.44,86.44 C179.333333,86.1866667 179.28,85.92 179.28,85.64 C179.28,85.3466667 179.333333,85.0733333 179.44,84.82 C179.546667,84.5666667 179.693333,84.3466667 179.88,84.16 C180.066667,83.9733333 180.286667,83.8266667 180.54,83.72 C180.793333,83.6133333 181.06,83.56 181.34,83.56 Z" id="LOGO"></path>
        </g>
    </g>
</svg>