<?xml version="1.0" encoding="UTF-8"?>
<svg width="500px" height="192px" viewBox="0 0 500 192" version="1.1" xmlns="http://www.w3.org/2000/svg" xmlns:xlink="http://www.w3.org/1999/xlink">
    <title>Artboard</title>
    <g id="Artboard" stroke="none" stroke-width="1" fill="none" fill-rule="evenodd">
        <g id="MOVA-Logo" transform="translate(10.000000, 18.000000)" fill-rule="nonzero">
            <path d="M24.2,2 L24.6065097,2.00512112 C27.0214681,2.06657459 29.0026316,2.68110922 30.55,3.84872502 C32.0744444,4.99904281 33.2359259,6.45403936 34.0344444,8.21371468 L34.2,8.59545141 L65.6,92.137836 L65.9595,93.0856823 C67.0365,95.9547037 68.1,99.0530669 69.15,102.380772 C70.3166667,106.078222 71.4,109.958879 72.4,114.022743 C73.2666667,109.958879 74.2166667,106.078222 75.25,102.380772 C76.1893939,99.0194537 77.1976584,95.8921339 78.2747934,92.9988124 L78.6,92.137836 L109.8,8.59545141 L109.940222,8.26434643 C110.626741,6.72851673 111.763333,5.32326365 113.35,4.04858718 C114.960526,2.75474265 116.945014,2.07377184 119.303463,2.00567476 L119.7,2 L144,2 L85.6,147 L58.4,147 L26.5,67.796623 L26.5,146.900069 L0,146.900069 L0,2 L24.2,2 Z M121.471583,97.1885309 C122.270617,103.019144 123.395043,108.44697 124.84486,113.47201 C128.074766,124.666807 132.520872,133.922505 138.183178,141.239105 C139.755444,143.270723 141.410722,145.157458 143.14901,146.899308 L117.5,146.900069 L117.5,107.0491 L121.471583,97.1885309 Z" id="M" fill="#363634"></path>
            <path d="M190.3,148 C197.9,148 204.983333,146.519667 211.55,143.559002 C218.116667,140.598337 223.8,136.074174 228.6,129.986514 C233.4,123.898854 237.166667,116.197797 239.9,106.883345 C242.633333,97.5688919 244,86.5911441 244,73.9501011 C244,61.3090582 242.633333,50.3479434 239.9,41.0667566 C237.166667,31.7855698 233.4,24.1011463 228.6,18.0134862 C223.8,11.925826 218.116667,7.4016633 211.55,4.44099798 C204.983333,1.48033266 197.9,0 190.3,0 C182.7,0 175.633333,1.48033266 169.1,4.44099798 C162.566667,7.4016633 156.933333,11.925826 152.2,18.0134862 C147.466667,24.1011463 143.75,31.7855698 141.05,41.0667566 C138.35,50.3479434 137,61.3090582 137,73.9501011 C137,86.5911441 138.35,97.5688919 141.05,106.883345 C143.75,116.197797 147.466667,123.898854 152.2,129.986514 C156.933333,136.074174 162.566667,140.598337 169.1,143.559002 C175.633333,146.519667 182.7,148 190.3,148 Z M190.3,125.545516 C187.1,125.545516 184.016667,124.7804 181.05,123.250169 C178.083333,121.719937 175.45,119.025399 173.15,115.166554 C170.85,111.30771 169,106.051697 167.6,99.3985165 C166.2,92.745336 165.5,84.2625309 165.5,73.9501011 C165.5,63.7042032 166.2,55.254664 167.6,48.6014835 C169,41.948303 170.85,36.6922904 173.15,32.8334457 C175.45,28.974601 178.083333,26.2800629 181.05,24.7498314 C184.016667,23.2195999 187.1,22.4544842 190.3,22.4544842 C193.5,22.4544842 196.616667,23.2195999 199.65,24.7498314 C202.683333,26.2800629 205.366667,28.974601 207.7,32.8334457 C210.033333,36.6922904 211.916667,41.948303 213.35,48.6014835 C214.783333,55.254664 215.5,63.7042032 215.5,73.9501011 C215.5,84.2625309 214.783333,92.745336 213.35,99.3985165 C211.916667,106.051697 210.033333,111.30771 207.7,115.166554 C205.366667,119.025399 202.683333,121.719937 199.65,123.250169 C196.616667,124.7804 193.5,125.545516 190.3,125.545516 Z" id="O" fill="#363634"></path>
            <path d="M320.6,147 L379,2 L354.7,2 C352.166667,2 350.05,2.68286239 348.35,4.04858718 C346.65,5.41431197 345.466667,6.92993338 344.8,8.59545141 L344.8,8.59545141 L313.6,92.137836 C312.4,95.2690099 311.283333,98.6833218 310.25,102.380772 C309.216667,106.078222 308.266667,109.958879 307.4,114.022743 C306.4,109.958879 305.316667,106.078222 304.15,102.380772 C302.983333,98.6833218 301.8,95.2690099 300.6,92.137836 L300.6,92.137836 L269.2,8.59545141 C268.4,6.66345049 267.183333,5.08120836 265.55,3.84872502 C263.916667,2.61624167 261.8,2 259.2,2 L259.2,2 L235,2 L293.4,147 L320.6,147 Z" id="V" fill="#0E86B7"></path>
            <path d="M422.6,147 L481,2 L456.7,2 C454.166667,2 452.05,2.68286239 450.35,4.04858718 C448.65,5.41431197 447.466667,6.92993338 446.8,8.59545141 L446.8,8.59545141 L415.6,92.137836 C414.4,95.2690099 413.283333,98.6833218 412.25,102.380772 C411.216667,106.078222 410.266667,109.958879 409.4,114.022743 C408.4,109.958879 407.316667,106.078222 406.15,102.380772 C404.983333,98.6833218 403.8,95.2690099 402.6,92.137836 L402.6,92.137836 L371.2,8.59545141 C370.4,6.66345049 369.183333,5.08120836 367.55,3.84872502 C365.916667,2.61624167 363.8,2 361.2,2 L361.2,2 L337,2 L395.4,147 L422.6,147 Z" id="A" fill="#363634" transform="translate(409.000000, 74.500000) scale(-1, 1) rotate(-180.000000) translate(-409.000000, -74.500000) "></path>
        </g>
    </g>
</svg>